<?xml version="1.0" encoding="utf-8"?>
<!-- Generator: Adobe Illustrator 19.2.0, SVG Export Plug-In . SVG Version: 6.00 Build 0)  -->
<svg version="1.1" id="Layer_1" xmlns="http://www.w3.org/2000/svg" xmlns:xlink="http://www.w3.org/1999/xlink" x="0px" y="0px"
	 viewBox="0 0 423.2 169" style="enable-background:new 0 0 423.2 169;" xml:space="preserve">
<style type="text/css">
	.st0{font-family:'Arial-BoldMT';}
	.st1{font-size:74.58px;}
	.st2{letter-spacing:-3.8;}
	.st3{font-size:84px;}
	.st4{fill:#FFFFFF;}
</style>
<title>tanzsport-logo-white</title>
<g>
	<g id="Layer_1_copy">
		<g>
			<text transform="matrix(0.52 0 0 1 3 64.98)" class="st0 st1">SG Dornheim 1886 e.</text>
			<text transform="matrix(0.52 0 0 1 390.9766 64.98)" class="st0 st1 st2">V</text>
			<text transform="matrix(0.52 0 0 1 413.2852 64.98)" class="st0 st1">.</text>
			<text transform="matrix(0.52 0 0 1 3 142.7798)" class="st0 st3">Abteilung </text>
			<text transform="matrix(0.52 0 0 1 216.5171 142.7798)" class="st0 st3 st2">T</text>
			<text transform="matrix(0.52 0 0 1 239.9536 142.7798)" class="st0 st3">anzsport</text>
		</g>
		<text transform="matrix(0.52 0 0 1 0 63.98)" class="st4 st0 st1">SG Dornheim 1886 e.</text>
		<text transform="matrix(0.52 0 0 1 387.9766 63.98)" class="st4 st0 st1 st2">V</text>
		<text transform="matrix(0.52 0 0 1 410.2852 63.98)" class="st4 st0 st1">.</text>
		<text transform="matrix(0.52 0 0 1 0 141.7798)" class="st4 st0 st3">Abteilung </text>
		<text transform="matrix(0.52 0 0 1 213.5171 141.7798)" class="st4 st0 st3 st2">T</text>
		<text transform="matrix(0.52 0 0 1 236.9536 141.7798)" class="st4 st0 st3">anzsport</text>
	</g>
</g>
</svg>
